<svg xmlns="http://www.w3.org/2000/svg" xmlns:xlink="http://www.w3.org/1999/xlink" width="500" zoomAndPan="magnify" viewBox="0 0 375 374.999991" height="500" preserveAspectRatio="xMidYMid meet" version="1.0"><defs><clipPath id="3b08c91074"><path d="M 167 89 L 224.941406 89 L 224.941406 148 L 167 148 Z M 167 89 " clip-rule="nonzero"/></clipPath></defs><g clip-path="url(#3b08c91074)"><path fill="#df91ab" d="M 192.554688 89.226562 C 175.179688 88.621094 163.410156 111.257812 168.429688 126.386719 C 170.753906 133.394531 176.632812 138.519531 182.570312 142.539062 C 187.066406 145.578125 192.179688 147.777344 197.683594 147.53125 C 200.792969 147.390625 203.761719 146.40625 206.558594 145.035156 C 210.109375 144.476562 213.585938 143.53125 216.679688 141.707031 C 218.351562 140.722656 219.808594 139.636719 220.910156 138.03125 C 223.621094 134.074219 223.839844 128.832031 224.167969 124.238281 C 224.46875 120.019531 224.582031 117.175781 222.851562 113.214844 C 219.480469 105.488281 212.988281 99.195312 206.210938 94.425781 C 202.199219 91.601562 197.53125 89.398438 192.554688 89.226562 Z M 202.605469 96.574219 C 204.464844 96.851562 206.3125 97.300781 208.085938 98.101562 C 208.332031 98.347656 208.542969 98.601562 208.777344 98.863281 C 209.199219 99.332031 209.636719 99.824219 210.027344 100.316406 C 210.722656 101.203125 211.144531 102.28125 211.757812 103.230469 C 211.546875 103.046875 211.417969 102.785156 211.203125 102.605469 C 208.710938 100.507812 205.722656 98.355469 202.605469 96.574219 Z M 200.457031 100.25 C 202.539062 100.253906 204.597656 100.777344 206.488281 101.636719 C 207.1875 101.953125 207.699219 102.28125 208.363281 102.675781 C 208.761719 103.105469 208.863281 103.121094 209.402344 103.855469 C 209.671875 104.21875 209.921875 104.648438 210.164062 105.03125 C 210.730469 105.941406 210.875 107.023438 211.273438 108.015625 C 207.933594 105.082031 203.921875 101.890625 199.488281 100.386719 C 199.820312 100.363281 200.121094 100.25 200.457031 100.25 Z M 204.410156 106.628906 C 205.4375 106.765625 206.472656 107.214844 207.53125 107.667969 C 209.441406 110.117188 210.332031 112.785156 210.648438 115.570312 C 209.699219 114.757812 208.851562 113.796875 207.875 113.074219 C 204.332031 110.449219 200.515625 108.582031 196.574219 108.777344 C 199.011719 107.347656 201.574219 106.242188 204.410156 106.628906 Z M 205.65625 115.917969 C 206.113281 115.917969 206.582031 116.058594 207.042969 116.125 C 207.222656 116.578125 207.347656 117.042969 207.460938 117.511719 C 206.835938 116.992188 206.34375 116.421875 205.65625 115.917969 Z M 204.132812 120.421875 C 204.132812 120.445312 204.132812 120.472656 204.132812 120.492188 C 204.117188 120.785156 203.890625 121.03125 203.855469 121.324219 C 203.605469 121.179688 203.34375 121.039062 203.09375 120.910156 C 203.402344 120.679688 203.800781 120.597656 204.132812 120.421875 Z M 185.136719 127.148438 C 186.730469 130.792969 190.011719 133.695312 193.179688 136.089844 C 193.292969 136.175781 193.414062 136.214844 193.523438 136.300781 C 191.84375 136.53125 190.167969 136.890625 188.464844 136.714844 C 187.660156 136.632812 186.902344 136.328125 186.105469 136.160156 C 185.902344 135.648438 185.632812 135.167969 185.484375 134.636719 C 184.796875 132.191406 184.855469 129.667969 185.136719 127.148438 Z M 197.894531 130.683594 C 198.144531 130.875 198.402344 131.050781 198.65625 131.238281 C 198.308594 131.511719 197.925781 131.710938 197.546875 131.933594 C 197.601562 131.5 197.804688 131.109375 197.894531 130.683594 Z M 177.441406 132.488281 C 177.472656 132.527344 177.476562 132.585938 177.511719 132.625 C 177.476562 132.609375 177.472656 132.640625 177.441406 132.625 C 177.425781 132.582031 177.453125 132.527344 177.441406 132.488281 Z M 179.660156 137.6875 C 180.085938 138.121094 180.597656 138.453125 181.046875 138.863281 C 180.835938 138.765625 180.582031 138.703125 180.351562 138.585938 C 180.3125 138.539062 180.253906 138.496094 180.214844 138.449219 C 180.019531 138.203125 179.84375 137.941406 179.660156 137.6875 Z M 179.660156 137.6875 " fill-opacity="1" fill-rule="nonzero"/></g><path fill="#df91ab" d="M 193.800781 183.164062 C 185.199219 182.875 178.394531 189.136719 174.667969 196.753906 C 174.605469 196.828125 174.523438 196.882812 174.460938 196.960938 C 171.816406 200.203125 169.707031 204.09375 169.050781 208.261719 C 168.882812 209.34375 169.152344 210.296875 169.191406 211.3125 C 168.496094 214.835938 168.390625 218.472656 170.023438 221.78125 C 171.777344 225.335938 174.816406 228.140625 177.859375 230.585938 C 183.125 234.820312 189.113281 238.125 196.019531 238.074219 C 198.371094 238.054688 200.886719 237.550781 203.300781 236.753906 C 202.996094 238 202.695312 239.257812 202.398438 240.5 C 200.1875 249.832031 197.027344 259.039062 190.960938 266.636719 C 188.929688 269.179688 186.421875 271.367188 184.234375 273.777344 C 183.996094 274.039062 183.527344 274.59375 183.125 275.023438 C 183.03125 275.089844 182.945312 275.167969 182.847656 275.230469 C 182.84375 275.238281 182.921875 275.292969 182.917969 275.300781 C 181.667969 276.675781 180.324219 278.324219 181.253906 279.601562 C 182.023438 280.65625 182.691406 281.238281 183.820312 282.234375 C 184.445312 282.785156 185.105469 283.3125 185.761719 283.828125 C 185.785156 283.847656 185.804688 283.878906 185.828125 283.898438 C 185.851562 283.914062 185.90625 283.921875 185.898438 283.898438 C 186.386719 284.234375 186.78125 284.625 187.285156 284.9375 C 187.773438 285.246094 188.300781 285.507812 188.8125 285.769531 C 189.035156 285.886719 189.316406 285.929688 189.574219 285.980469 C 190.792969 286.207031 192.746094 283.027344 193.523438 282.234375 C 194.867188 280.871094 195.941406 279.3125 197.128906 277.867188 C 205.945312 270.539062 212.796875 260.988281 216.472656 250.066406 C 217.464844 247.113281 218.207031 243.960938 218.621094 240.847656 C 222.375 231.507812 225.042969 220.734375 221.464844 211.589844 C 221.457031 211.515625 221.402344 211.457031 221.394531 211.382812 C 221.113281 208.625 220.238281 206.082031 218.898438 203.753906 C 218.589844 202.671875 218.433594 201.472656 218 200.496094 C 215.691406 195.320312 211.148438 191.515625 206.628906 188.292969 C 202.835938 185.59375 198.550781 183.324219 193.800781 183.164062 Z M 205.449219 191 C 206.191406 191.191406 206.9375 191.378906 207.667969 191.691406 C 208.027344 192.222656 208.199219 192.859375 208.5 193.425781 C 207.445312 192.644531 206.578125 191.644531 205.449219 191 Z M 199.835938 195.785156 C 200.800781 197.128906 201.792969 198.445312 202.816406 199.734375 C 201.644531 198.921875 200.574219 197.972656 199.347656 197.238281 C 198.605469 196.792969 197.820312 196.800781 197.0625 196.476562 C 197.96875 196.144531 198.894531 195.996094 199.835938 195.785156 Z M 206.976562 199.039062 C 207.007812 198.746094 207.320312 199.066406 207.597656 199.179688 C 207.890625 200.011719 208.109375 200.816406 208.292969 201.675781 C 208.167969 201.519531 208.066406 201.34375 207.945312 201.191406 C 207.480469 200.601562 206.890625 199.84375 206.976562 199.039062 Z M 200.527344 201.953125 C 201.847656 201.929688 204.316406 202.359375 204.964844 203.339844 C 205.5 204.445312 205.847656 205.542969 206.074219 206.667969 C 205.730469 206.394531 205.445312 206.027344 205.101562 205.765625 C 203.355469 204.425781 201.304688 203.226562 199.210938 202.300781 C 199.660156 202.222656 200.058594 201.960938 200.527344 201.953125 Z M 196.574219 223.515625 C 196.660156 223.589844 196.710938 223.800781 196.785156 223.859375 C 196.847656 223.914062 196.929688 223.945312 196.992188 224 C 196.753906 224.113281 196.542969 224.179688 196.296875 224.277344 C 196.394531 224.015625 196.460938 223.769531 196.574219 223.515625 Z M 189.78125 226.007812 C 190.183594 226.394531 190.613281 226.746094 191.03125 227.117188 C 190.6875 227.167969 190.335938 227.175781 189.988281 227.1875 C 189.976562 227.136719 189.933594 227.101562 189.921875 227.050781 C 189.828125 226.710938 189.84375 226.355469 189.78125 226.007812 Z M 178.828125 227.535156 C 179.527344 228.109375 180.191406 228.730469 180.90625 229.265625 C 181.226562 229.507812 181.621094 229.65625 181.949219 229.890625 C 181.199219 229.679688 180.453125 229.503906 179.730469 229.199219 C 179.378906 228.65625 179.089844 228.089844 178.828125 227.535156 Z M 186.175781 227.8125 C 186.421875 228.035156 186.6875 228.21875 186.9375 228.4375 C 186.757812 228.378906 186.5625 228.359375 186.382812 228.296875 C 186.320312 228.136719 186.242188 227.972656 186.175781 227.8125 Z M 186.175781 227.8125 " fill-opacity="1" fill-rule="nonzero"/><path fill="#000000" d="M 178.75 89.226562 C 161.507812 88.621094 149.828125 111.222656 154.808594 126.328125 C 157.117188 133.328125 162.949219 138.445312 168.84375 142.457031 C 173.300781 145.492188 178.378906 147.6875 183.839844 147.441406 C 186.921875 147.304688 189.867188 146.320312 192.644531 144.949219 C 196.167969 144.390625 199.617188 143.449219 202.6875 141.628906 C 204.347656 140.644531 205.792969 139.5625 206.882812 137.957031 C 209.574219 134.007812 209.792969 128.773438 210.117188 124.183594 C 210.414062 119.972656 210.527344 117.132812 208.808594 113.175781 C 205.464844 105.464844 199.023438 99.179688 192.300781 94.417969 C 188.316406 91.59375 183.6875 89.398438 178.75 89.226562 Z M 188.722656 96.5625 C 190.566406 96.839844 192.402344 97.289062 194.15625 98.085938 C 194.402344 98.332031 194.613281 98.585938 194.847656 98.847656 C 195.265625 99.316406 195.695312 99.808594 196.085938 100.300781 C 196.777344 101.183594 197.195312 102.257812 197.804688 103.207031 C 197.59375 103.027344 197.464844 102.765625 197.253906 102.585938 C 194.78125 100.488281 191.816406 98.339844 188.722656 96.5625 Z M 186.589844 100.230469 C 188.65625 100.234375 190.695312 100.757812 192.574219 101.617188 C 193.265625 101.929688 193.773438 102.261719 194.433594 102.65625 C 194.828125 103.082031 194.929688 103.101562 195.464844 103.832031 C 195.734375 104.195312 195.980469 104.625 196.222656 105.007812 C 196.785156 105.914062 196.929688 106.996094 197.320312 107.984375 C 194.011719 105.058594 190.027344 101.871094 185.628906 100.371094 C 185.957031 100.34375 186.253906 100.230469 186.589844 100.230469 Z M 190.511719 106.601562 C 191.53125 106.742188 192.558594 107.1875 193.609375 107.640625 C 195.503906 110.085938 196.390625 112.75 196.703125 115.53125 C 195.757812 114.71875 194.921875 113.761719 193.953125 113.039062 C 190.433594 110.417969 186.648438 108.554688 182.738281 108.746094 C 185.15625 107.316406 187.695312 106.214844 190.511719 106.601562 Z M 191.75 115.875 C 192.203125 115.875 192.667969 116.019531 193.125 116.085938 C 193.304688 116.539062 193.425781 117.003906 193.539062 117.46875 C 192.917969 116.949219 192.429688 116.378906 191.75 115.875 Z M 190.238281 120.375 C 190.234375 120.398438 190.238281 120.421875 190.238281 120.445312 C 190.222656 120.738281 189.996094 120.984375 189.960938 121.277344 C 189.714844 121.128906 189.453125 120.988281 189.207031 120.859375 C 189.511719 120.632812 189.90625 120.550781 190.238281 120.375 Z M 171.386719 127.089844 C 172.96875 130.730469 176.226562 133.628906 179.367188 136.019531 C 179.480469 136.105469 179.597656 136.144531 179.710938 136.226562 C 178.042969 136.460938 176.378906 136.816406 174.691406 136.644531 C 173.890625 136.5625 173.136719 136.257812 172.351562 136.089844 C 172.148438 135.578125 171.878906 135.101562 171.730469 134.566406 C 171.054688 132.128906 171.109375 129.605469 171.386719 127.089844 Z M 184.046875 130.621094 C 184.296875 130.8125 184.550781 130.988281 184.800781 131.175781 C 184.460938 131.449219 184.078125 131.644531 183.703125 131.867188 C 183.757812 131.4375 183.957031 131.046875 184.046875 130.621094 Z M 163.753906 132.421875 C 163.785156 132.460938 163.789062 132.519531 163.820312 132.558594 C 163.789062 132.542969 163.785156 132.574219 163.753906 132.558594 C 163.738281 132.515625 163.765625 132.464844 163.753906 132.421875 Z M 165.953125 137.613281 C 166.378906 138.046875 166.886719 138.378906 167.328125 138.789062 C 167.121094 138.691406 166.871094 138.628906 166.640625 138.511719 C 166.601562 138.464844 166.542969 138.421875 166.503906 138.375 C 166.308594 138.128906 166.136719 137.867188 165.953125 137.613281 Z M 165.953125 137.613281 " fill-opacity="1" fill-rule="nonzero"/><path fill="#000000" d="M 179.988281 183.023438 C 171.449219 182.734375 164.699219 188.988281 161 196.59375 C 160.9375 196.667969 160.855469 196.722656 160.792969 196.800781 C 158.171875 200.035156 156.078125 203.921875 155.429688 208.082031 C 155.261719 209.164062 155.527344 210.113281 155.566406 211.128906 C 154.878906 214.644531 154.773438 218.28125 156.390625 221.582031 C 158.132812 225.132812 161.148438 227.933594 164.164062 230.375 C 169.390625 234.601562 175.332031 237.902344 182.1875 237.851562 C 184.519531 237.832031 187.015625 237.328125 189.410156 236.535156 C 189.109375 237.777344 188.808594 239.03125 188.515625 240.273438 C 186.320312 249.589844 183.183594 258.78125 177.167969 266.371094 C 175.152344 268.910156 172.664062 271.09375 170.496094 273.5 C 170.257812 273.761719 169.792969 274.316406 169.394531 274.746094 C 169.296875 274.808594 169.214844 274.890625 169.117188 274.953125 C 169.113281 274.960938 169.191406 275.015625 169.1875 275.023438 C 167.945312 276.394531 166.613281 278.042969 167.535156 279.316406 C 168.300781 280.371094 168.960938 280.949219 170.082031 281.945312 C 170.703125 282.496094 171.355469 283.023438 172.007812 283.539062 C 172.03125 283.558594 172.050781 283.585938 172.078125 283.605469 C 172.097656 283.621094 172.152344 283.628906 172.144531 283.605469 C 172.628906 283.941406 173.019531 284.332031 173.519531 284.644531 C 174.007812 284.949219 174.527344 285.210938 175.035156 285.476562 C 175.257812 285.589844 175.535156 285.636719 175.789062 285.683594 C 177 285.914062 178.9375 282.734375 179.710938 281.945312 C 181.042969 280.585938 182.105469 279.03125 183.289062 277.585938 C 192.035156 270.265625 198.835938 260.730469 202.480469 249.824219 C 203.46875 246.875 204.203125 243.730469 204.613281 240.617188 C 208.339844 231.292969 210.984375 220.539062 207.433594 211.40625 C 207.429688 211.332031 207.371094 211.273438 207.367188 211.199219 C 207.085938 208.445312 206.21875 205.90625 204.890625 203.582031 C 204.582031 202.5 204.425781 201.304688 203.996094 200.328125 C 201.707031 195.160156 197.195312 191.363281 192.714844 188.144531 C 188.949219 185.445312 184.699219 183.183594 179.988281 183.023438 Z M 191.542969 190.847656 C 192.28125 191.039062 193.019531 191.226562 193.746094 191.539062 C 194.101562 192.066406 194.269531 192.703125 194.570312 193.269531 C 193.523438 192.488281 192.664062 191.492188 191.542969 190.847656 Z M 185.972656 195.625 C 186.929688 196.964844 187.917969 198.28125 188.929688 199.570312 C 187.769531 198.757812 186.703125 197.808594 185.492188 197.078125 C 184.75 196.628906 183.972656 196.640625 183.21875 196.316406 C 184.117188 195.984375 185.039062 195.835938 185.972656 195.625 Z M 193.058594 198.875 C 193.089844 198.582031 193.398438 198.902344 193.675781 199.015625 C 193.964844 199.84375 194.183594 200.648438 194.363281 201.507812 C 194.242188 201.351562 194.140625 201.175781 194.019531 201.023438 C 193.558594 200.433594 192.972656 199.679688 193.058594 198.875 Z M 186.660156 201.785156 C 187.972656 201.761719 190.417969 202.191406 191.0625 203.167969 C 191.59375 204.273438 191.941406 205.367188 192.164062 206.492188 C 191.820312 206.21875 191.539062 205.855469 191.199219 205.59375 C 189.464844 204.253906 187.429688 203.054688 185.351562 202.128906 C 185.800781 202.050781 186.195312 201.792969 186.660156 201.785156 Z M 182.738281 223.3125 C 182.824219 223.390625 182.875 223.597656 182.945312 223.660156 C 183.007812 223.710938 183.089844 223.742188 183.152344 223.796875 C 182.914062 223.910156 182.707031 223.976562 182.464844 224.074219 C 182.558594 223.8125 182.625 223.570312 182.738281 223.3125 Z M 175.996094 225.804688 C 176.398438 226.1875 176.824219 226.542969 177.234375 226.910156 C 176.894531 226.960938 176.546875 226.972656 176.203125 226.980469 C 176.1875 226.929688 176.148438 226.894531 176.132812 226.84375 C 176.042969 226.503906 176.058594 226.152344 175.996094 225.804688 Z M 165.128906 227.328125 C 165.824219 227.902344 166.480469 228.523438 167.191406 229.058594 C 167.507812 229.296875 167.898438 229.445312 168.222656 229.679688 C 167.484375 229.46875 166.742188 229.292969 166.023438 228.988281 C 165.675781 228.449219 165.390625 227.882812 165.128906 227.328125 Z M 172.421875 227.605469 C 172.664062 227.828125 172.925781 228.011719 173.175781 228.226562 C 172.996094 228.171875 172.804688 228.152344 172.625 228.089844 C 172.5625 227.929688 172.484375 227.765625 172.421875 227.605469 Z M 172.421875 227.605469 " fill-opacity="1" fill-rule="nonzero"/></svg>