<svg xmlns="http://www.w3.org/2000/svg" xmlns:xlink="http://www.w3.org/1999/xlink" width="309" zoomAndPan="magnify" viewBox="0 0 231.75 111.749996" height="149" preserveAspectRatio="xMidYMid meet" version="1.0"><defs><g/><clipPath id="94b30844b2"><path d="M 0.132812 20.464844 L 22 20.464844 L 22 90.058594 L 0.132812 90.058594 Z M 0.132812 20.464844 " clip-rule="nonzero"/></clipPath></defs><g clip-path="url(#94b30844b2)"><path fill="#c25397" d="M 19.894531 28.363281 L 21.867188 28.363281 L 21.867188 20.464844 L 19.894531 20.464844 C 13.351562 20.464844 8.046875 25.769531 8.046875 32.3125 L 8.046875 46.136719 C 8.046875 47.378906 7.460938 48.546875 6.464844 49.292969 L 1.726562 52.847656 C 0.777344 53.558594 0.199219 54.660156 0.148438 55.84375 C 0.101562 57.03125 0.585938 58.171875 1.472656 58.960938 L 6.71875 63.625 C 7.5625 64.375 8.046875 65.449219 8.046875 66.574219 L 8.046875 79.707031 C 8.046875 86.25 13.351562 91.554688 19.894531 91.554688 L 21.867188 91.554688 L 21.867188 83.65625 L 19.894531 83.65625 C 17.710938 83.65625 15.945312 81.886719 15.945312 79.707031 L 15.945312 66.574219 C 15.945312 63.191406 14.496094 59.96875 11.964844 57.71875 L 10.332031 56.269531 L 11.203125 55.613281 C 14.1875 53.375 15.945312 49.863281 15.945312 46.136719 L 15.945312 32.3125 C 15.945312 30.128906 17.710938 28.363281 19.894531 28.363281 Z M 19.894531 28.363281 " fill-opacity="1" fill-rule="evenodd"/></g><g fill="#000000" fill-opacity="1"><g transform="translate(30.807703, 50.934781)"><g><path d="M 21.625 -22.609375 L 13.5625 -22.609375 L 13.5625 0 L 8.609375 0 L 8.609375 -22.609375 L 0.546875 -22.609375 L 0.546875 -26.6875 L 21.625 -26.6875 Z M 21.625 -22.609375 "/></g></g></g><g fill="#000000" fill-opacity="1"><g transform="translate(52.955904, 50.934781)"><g><path d="M 6.8125 -16.90625 C 7.550781 -17.59375 8.363281 -18.148438 9.25 -18.578125 C 10.132812 -19.015625 11.175781 -19.234375 12.375 -19.234375 C 13.40625 -19.234375 14.316406 -19.054688 15.109375 -18.703125 C 15.910156 -18.359375 16.578125 -17.867188 17.109375 -17.234375 C 17.648438 -16.597656 18.054688 -15.835938 18.328125 -14.953125 C 18.609375 -14.078125 18.75 -13.113281 18.75 -12.0625 L 18.75 0 L 14.203125 0 L 14.203125 -12.0625 C 14.203125 -13.21875 13.9375 -14.109375 13.40625 -14.734375 C 12.875 -15.367188 12.066406 -15.6875 10.984375 -15.6875 C 10.191406 -15.6875 9.453125 -15.507812 8.765625 -15.15625 C 8.078125 -14.800781 7.425781 -14.316406 6.8125 -13.703125 L 6.8125 0 L 2.25 0 L 2.25 -27.4375 L 6.8125 -27.4375 Z M 6.8125 -16.90625 "/></g></g></g><g fill="#000000" fill-opacity="1"><g transform="translate(73.775214, 50.934781)"><g><path d="M 12.265625 -8.078125 C 10.941406 -8.023438 9.832031 -7.914062 8.9375 -7.75 C 8.039062 -7.582031 7.320312 -7.367188 6.78125 -7.109375 C 6.238281 -6.847656 5.847656 -6.546875 5.609375 -6.203125 C 5.378906 -5.859375 5.265625 -5.484375 5.265625 -5.078125 C 5.265625 -4.273438 5.5 -3.703125 5.96875 -3.359375 C 6.445312 -3.015625 7.066406 -2.84375 7.828125 -2.84375 C 8.765625 -2.84375 9.570312 -3.007812 10.25 -3.34375 C 10.9375 -3.6875 11.609375 -4.203125 12.265625 -4.890625 Z M 1.8125 -16.296875 C 3.988281 -18.296875 6.609375 -19.296875 9.671875 -19.296875 C 10.773438 -19.296875 11.765625 -19.113281 12.640625 -18.75 C 13.515625 -18.382812 14.253906 -17.878906 14.859375 -17.234375 C 15.460938 -16.585938 15.921875 -15.8125 16.234375 -14.90625 C 16.546875 -14.007812 16.703125 -13.03125 16.703125 -11.96875 L 16.703125 0 L 14.640625 0 C 14.210938 0 13.878906 -0.0625 13.640625 -0.1875 C 13.410156 -0.320312 13.226562 -0.585938 13.09375 -0.984375 L 12.6875 -2.34375 C 12.207031 -1.914062 11.738281 -1.535156 11.28125 -1.203125 C 10.820312 -0.878906 10.347656 -0.609375 9.859375 -0.390625 C 9.367188 -0.171875 8.84375 -0.00390625 8.28125 0.109375 C 7.71875 0.234375 7.097656 0.296875 6.421875 0.296875 C 5.617188 0.296875 4.878906 0.191406 4.203125 -0.015625 C 3.523438 -0.234375 2.941406 -0.554688 2.453125 -0.984375 C 1.960938 -1.421875 1.582031 -1.957031 1.3125 -2.59375 C 1.039062 -3.238281 0.90625 -3.988281 0.90625 -4.84375 C 0.90625 -5.320312 0.984375 -5.796875 1.140625 -6.265625 C 1.304688 -6.742188 1.566406 -7.195312 1.921875 -7.625 C 2.285156 -8.050781 2.753906 -8.457031 3.328125 -8.84375 C 3.910156 -9.226562 4.625 -9.5625 5.46875 -9.84375 C 6.3125 -10.125 7.289062 -10.351562 8.40625 -10.53125 C 9.53125 -10.707031 10.816406 -10.816406 12.265625 -10.859375 L 12.265625 -11.96875 C 12.265625 -13.226562 11.992188 -14.160156 11.453125 -14.765625 C 10.910156 -15.378906 10.125 -15.6875 9.09375 -15.6875 C 8.363281 -15.6875 7.753906 -15.597656 7.265625 -15.421875 C 6.773438 -15.253906 6.34375 -15.0625 5.96875 -14.84375 C 5.601562 -14.632812 5.269531 -14.441406 4.96875 -14.265625 C 4.664062 -14.097656 4.332031 -14.015625 3.96875 -14.015625 C 3.644531 -14.015625 3.375 -14.097656 3.15625 -14.265625 C 2.9375 -14.429688 2.757812 -14.625 2.625 -14.84375 Z M 1.8125 -16.296875 "/></g></g></g><g fill="#000000" fill-opacity="1"><g transform="translate(92.508894, 50.934781)"><g><path d="M 6.515625 -16.609375 C 6.898438 -16.992188 7.300781 -17.347656 7.71875 -17.671875 C 8.144531 -18.003906 8.59375 -18.28125 9.0625 -18.5 C 9.539062 -18.726562 10.050781 -18.90625 10.59375 -19.03125 C 11.132812 -19.164062 11.726562 -19.234375 12.375 -19.234375 C 13.40625 -19.234375 14.316406 -19.054688 15.109375 -18.703125 C 15.910156 -18.359375 16.578125 -17.867188 17.109375 -17.234375 C 17.648438 -16.597656 18.054688 -15.835938 18.328125 -14.953125 C 18.609375 -14.078125 18.75 -13.113281 18.75 -12.0625 L 18.75 0 L 14.203125 0 L 14.203125 -12.0625 C 14.203125 -13.21875 13.9375 -14.109375 13.40625 -14.734375 C 12.875 -15.367188 12.066406 -15.6875 10.984375 -15.6875 C 10.191406 -15.6875 9.453125 -15.507812 8.765625 -15.15625 C 8.078125 -14.800781 7.425781 -14.316406 6.8125 -13.703125 L 6.8125 0 L 2.25 0 L 2.25 -18.9375 L 5.046875 -18.9375 C 5.628906 -18.9375 6.015625 -18.660156 6.203125 -18.109375 Z M 6.515625 -16.609375 "/></g></g></g><g fill="#000000" fill-opacity="1"><g transform="translate(113.328204, 50.934781)"><g><path d="M 12.265625 -8.078125 C 10.941406 -8.023438 9.832031 -7.914062 8.9375 -7.75 C 8.039062 -7.582031 7.320312 -7.367188 6.78125 -7.109375 C 6.238281 -6.847656 5.847656 -6.546875 5.609375 -6.203125 C 5.378906 -5.859375 5.265625 -5.484375 5.265625 -5.078125 C 5.265625 -4.273438 5.5 -3.703125 5.96875 -3.359375 C 6.445312 -3.015625 7.066406 -2.84375 7.828125 -2.84375 C 8.765625 -2.84375 9.570312 -3.007812 10.25 -3.34375 C 10.9375 -3.6875 11.609375 -4.203125 12.265625 -4.890625 Z M 1.8125 -16.296875 C 3.988281 -18.296875 6.609375 -19.296875 9.671875 -19.296875 C 10.773438 -19.296875 11.765625 -19.113281 12.640625 -18.75 C 13.515625 -18.382812 14.253906 -17.878906 14.859375 -17.234375 C 15.460938 -16.585938 15.921875 -15.8125 16.234375 -14.90625 C 16.546875 -14.007812 16.703125 -13.03125 16.703125 -11.96875 L 16.703125 0 L 14.640625 0 C 14.210938 0 13.878906 -0.0625 13.640625 -0.1875 C 13.410156 -0.320312 13.226562 -0.585938 13.09375 -0.984375 L 12.6875 -2.34375 C 12.207031 -1.914062 11.738281 -1.535156 11.28125 -1.203125 C 10.820312 -0.878906 10.347656 -0.609375 9.859375 -0.390625 C 9.367188 -0.171875 8.84375 -0.00390625 8.28125 0.109375 C 7.71875 0.234375 7.097656 0.296875 6.421875 0.296875 C 5.617188 0.296875 4.878906 0.191406 4.203125 -0.015625 C 3.523438 -0.234375 2.941406 -0.554688 2.453125 -0.984375 C 1.960938 -1.421875 1.582031 -1.957031 1.3125 -2.59375 C 1.039062 -3.238281 0.90625 -3.988281 0.90625 -4.84375 C 0.90625 -5.320312 0.984375 -5.796875 1.140625 -6.265625 C 1.304688 -6.742188 1.566406 -7.195312 1.921875 -7.625 C 2.285156 -8.050781 2.753906 -8.457031 3.328125 -8.84375 C 3.910156 -9.226562 4.625 -9.5625 5.46875 -9.84375 C 6.3125 -10.125 7.289062 -10.351562 8.40625 -10.53125 C 9.53125 -10.707031 10.816406 -10.816406 12.265625 -10.859375 L 12.265625 -11.96875 C 12.265625 -13.226562 11.992188 -14.160156 11.453125 -14.765625 C 10.910156 -15.378906 10.125 -15.6875 9.09375 -15.6875 C 8.363281 -15.6875 7.753906 -15.597656 7.265625 -15.421875 C 6.773438 -15.253906 6.34375 -15.0625 5.96875 -14.84375 C 5.601562 -14.632812 5.269531 -14.441406 4.96875 -14.265625 C 4.664062 -14.097656 4.332031 -14.015625 3.96875 -14.015625 C 3.644531 -14.015625 3.375 -14.097656 3.15625 -14.265625 C 2.9375 -14.429688 2.757812 -14.625 2.625 -14.84375 Z M 1.8125 -16.296875 "/></g></g></g><g fill="#000000" fill-opacity="1"><g transform="translate(132.061883, 50.934781)"><g><path d="M 6.8125 -4.90625 C 7.332031 -4.28125 7.894531 -3.835938 8.5 -3.578125 C 9.113281 -3.316406 9.773438 -3.1875 10.484375 -3.1875 C 11.171875 -3.1875 11.789062 -3.316406 12.34375 -3.578125 C 12.90625 -3.835938 13.378906 -4.234375 13.765625 -4.765625 C 14.148438 -5.296875 14.445312 -5.960938 14.65625 -6.765625 C 14.863281 -7.566406 14.96875 -8.519531 14.96875 -9.625 C 14.96875 -10.726562 14.878906 -11.664062 14.703125 -12.4375 C 14.523438 -13.207031 14.269531 -13.832031 13.9375 -14.3125 C 13.601562 -14.789062 13.195312 -15.140625 12.71875 -15.359375 C 12.25 -15.578125 11.710938 -15.6875 11.109375 -15.6875 C 10.160156 -15.6875 9.351562 -15.484375 8.6875 -15.078125 C 8.03125 -14.679688 7.40625 -14.125 6.8125 -13.40625 Z M 6.578125 -16.359375 C 7.347656 -17.234375 8.222656 -17.941406 9.203125 -18.484375 C 10.191406 -19.023438 11.351562 -19.296875 12.6875 -19.296875 C 13.71875 -19.296875 14.660156 -19.078125 15.515625 -18.640625 C 16.367188 -18.210938 17.101562 -17.585938 17.71875 -16.765625 C 18.34375 -15.953125 18.820312 -14.941406 19.15625 -13.734375 C 19.5 -12.535156 19.671875 -11.164062 19.671875 -9.625 C 19.671875 -8.207031 19.476562 -6.894531 19.09375 -5.6875 C 18.71875 -4.476562 18.175781 -3.429688 17.46875 -2.546875 C 16.757812 -1.660156 15.90625 -0.96875 14.90625 -0.46875 C 13.90625 0.03125 12.78125 0.28125 11.53125 0.28125 C 10.476562 0.28125 9.578125 0.117188 8.828125 -0.203125 C 8.078125 -0.535156 7.40625 -0.988281 6.8125 -1.5625 L 6.8125 6.1875 L 2.25 6.1875 L 2.25 -18.9375 L 5.046875 -18.9375 C 5.628906 -18.9375 6.015625 -18.660156 6.203125 -18.109375 Z M 6.578125 -16.359375 "/></g></g></g><g fill="#000000" fill-opacity="1"><g transform="translate(153.028847, 50.934781)"><g><path d="M 10.640625 -19.234375 C 12.035156 -19.234375 13.304688 -19.003906 14.453125 -18.546875 C 15.609375 -18.097656 16.59375 -17.453125 17.40625 -16.609375 C 18.226562 -15.773438 18.859375 -14.753906 19.296875 -13.546875 C 19.742188 -12.335938 19.96875 -10.988281 19.96875 -9.5 C 19.96875 -8 19.742188 -6.644531 19.296875 -5.4375 C 18.859375 -4.238281 18.226562 -3.210938 17.40625 -2.359375 C 16.59375 -1.515625 15.609375 -0.863281 14.453125 -0.40625 C 13.304688 0.0507812 12.035156 0.28125 10.640625 0.28125 C 9.222656 0.28125 7.9375 0.0507812 6.78125 -0.40625 C 5.625 -0.863281 4.632812 -1.515625 3.8125 -2.359375 C 2.988281 -3.210938 2.351562 -4.238281 1.90625 -5.4375 C 1.457031 -6.644531 1.234375 -8 1.234375 -9.5 C 1.234375 -10.988281 1.457031 -12.335938 1.90625 -13.546875 C 2.351562 -14.753906 2.988281 -15.773438 3.8125 -16.609375 C 4.632812 -17.453125 5.625 -18.097656 6.78125 -18.546875 C 7.9375 -19.003906 9.222656 -19.234375 10.640625 -19.234375 Z M 10.640625 -3.234375 C 12.210938 -3.234375 13.375 -3.757812 14.125 -4.8125 C 14.882812 -5.875 15.265625 -7.425781 15.265625 -9.46875 C 15.265625 -11.507812 14.882812 -13.066406 14.125 -14.140625 C 13.375 -15.210938 12.210938 -15.75 10.640625 -15.75 C 9.035156 -15.75 7.847656 -15.207031 7.078125 -14.125 C 6.304688 -13.050781 5.921875 -11.5 5.921875 -9.46875 C 5.921875 -7.4375 6.304688 -5.890625 7.078125 -4.828125 C 7.847656 -3.765625 9.035156 -3.234375 10.640625 -3.234375 Z M 10.640625 -3.234375 "/></g></g></g><g fill="#000000" fill-opacity="1"><g transform="translate(174.23575, 50.934781)"><g><path d="M 6.546875 -15.65625 C 7.140625 -16.789062 7.84375 -17.679688 8.65625 -18.328125 C 9.46875 -18.972656 10.425781 -19.296875 11.53125 -19.296875 C 12.40625 -19.296875 13.109375 -19.101562 13.640625 -18.71875 L 13.34375 -15.296875 C 13.28125 -15.078125 13.191406 -14.921875 13.078125 -14.828125 C 12.960938 -14.734375 12.804688 -14.6875 12.609375 -14.6875 C 12.421875 -14.6875 12.144531 -14.71875 11.78125 -14.78125 C 11.425781 -14.84375 11.070312 -14.875 10.71875 -14.875 C 10.21875 -14.875 9.769531 -14.800781 9.375 -14.65625 C 8.976562 -14.507812 8.625 -14.296875 8.3125 -14.015625 C 8 -13.742188 7.722656 -13.410156 7.484375 -13.015625 C 7.242188 -12.617188 7.019531 -12.171875 6.8125 -11.671875 L 6.8125 0 L 2.25 0 L 2.25 -18.9375 L 4.921875 -18.9375 C 5.390625 -18.9375 5.71875 -18.851562 5.90625 -18.6875 C 6.09375 -18.519531 6.21875 -18.222656 6.28125 -17.796875 Z M 6.546875 -15.65625 "/></g></g></g><g fill="#000000" fill-opacity="1"><g transform="translate(188.004542, 50.934781)"><g><path d="M 6.515625 -16.609375 C 6.898438 -16.992188 7.300781 -17.347656 7.71875 -17.671875 C 8.144531 -18.003906 8.59375 -18.28125 9.0625 -18.5 C 9.539062 -18.726562 10.050781 -18.90625 10.59375 -19.03125 C 11.132812 -19.164062 11.726562 -19.234375 12.375 -19.234375 C 13.40625 -19.234375 14.316406 -19.054688 15.109375 -18.703125 C 15.910156 -18.359375 16.578125 -17.867188 17.109375 -17.234375 C 17.648438 -16.597656 18.054688 -15.835938 18.328125 -14.953125 C 18.609375 -14.078125 18.75 -13.113281 18.75 -12.0625 L 18.75 0 L 14.203125 0 L 14.203125 -12.0625 C 14.203125 -13.21875 13.9375 -14.109375 13.40625 -14.734375 C 12.875 -15.367188 12.066406 -15.6875 10.984375 -15.6875 C 10.191406 -15.6875 9.453125 -15.507812 8.765625 -15.15625 C 8.078125 -14.800781 7.425781 -14.316406 6.8125 -13.703125 L 6.8125 0 L 2.25 0 L 2.25 -18.9375 L 5.046875 -18.9375 C 5.628906 -18.9375 6.015625 -18.660156 6.203125 -18.109375 Z M 6.515625 -16.609375 "/></g></g></g><g fill="#000000" fill-opacity="1"><g transform="translate(30.807703, 87.602749)"><g><path d="M 12.953125 -3.875 C 13.878906 -3.875 14.65625 -3.984375 15.28125 -4.203125 C 15.914062 -4.429688 16.421875 -4.726562 16.796875 -5.09375 C 17.171875 -5.46875 17.441406 -5.898438 17.609375 -6.390625 C 17.773438 -6.878906 17.859375 -7.398438 17.859375 -7.953125 C 17.859375 -8.535156 17.765625 -9.054688 17.578125 -9.515625 C 17.390625 -9.972656 17.097656 -10.363281 16.703125 -10.6875 C 16.304688 -11.019531 15.796875 -11.269531 15.171875 -11.4375 C 14.554688 -11.613281 13.8125 -11.703125 12.9375 -11.703125 L 7.9375 -11.703125 L 7.9375 -3.875 Z M 7.9375 -22.859375 L 7.9375 -15.140625 L 11.890625 -15.140625 C 13.585938 -15.140625 14.867188 -15.445312 15.734375 -16.0625 C 16.609375 -16.675781 17.046875 -17.65625 17.046875 -19 C 17.046875 -20.382812 16.648438 -21.375 15.859375 -21.96875 C 15.066406 -22.5625 13.835938 -22.859375 12.171875 -22.859375 Z M 12.171875 -26.6875 C 13.910156 -26.6875 15.398438 -26.519531 16.640625 -26.1875 C 17.890625 -25.863281 18.910156 -25.394531 19.703125 -24.78125 C 20.492188 -24.164062 21.070312 -23.421875 21.4375 -22.546875 C 21.8125 -21.671875 22 -20.6875 22 -19.59375 C 22 -18.957031 21.90625 -18.351562 21.71875 -17.78125 C 21.539062 -17.207031 21.253906 -16.671875 20.859375 -16.171875 C 20.472656 -15.679688 19.984375 -15.234375 19.390625 -14.828125 C 18.796875 -14.421875 18.085938 -14.078125 17.265625 -13.796875 C 20.929688 -12.960938 22.765625 -10.976562 22.765625 -7.84375 C 22.765625 -6.707031 22.546875 -5.660156 22.109375 -4.703125 C 21.679688 -3.742188 21.054688 -2.914062 20.234375 -2.21875 C 19.410156 -1.53125 18.394531 -0.988281 17.1875 -0.59375 C 15.976562 -0.195312 14.597656 0 13.046875 0 L 2.96875 0 L 2.96875 -26.6875 Z M 12.171875 -26.6875 "/></g></g></g><g fill="#000000" fill-opacity="1"><g transform="translate(55.115346, 87.602749)"><g><path d="M 10.640625 -19.234375 C 12.035156 -19.234375 13.304688 -19.003906 14.453125 -18.546875 C 15.609375 -18.097656 16.59375 -17.453125 17.40625 -16.609375 C 18.226562 -15.773438 18.859375 -14.753906 19.296875 -13.546875 C 19.742188 -12.335938 19.96875 -10.988281 19.96875 -9.5 C 19.96875 -8 19.742188 -6.644531 19.296875 -5.4375 C 18.859375 -4.238281 18.226562 -3.210938 17.40625 -2.359375 C 16.59375 -1.515625 15.609375 -0.863281 14.453125 -0.40625 C 13.304688 0.0507812 12.035156 0.28125 10.640625 0.28125 C 9.222656 0.28125 7.9375 0.0507812 6.78125 -0.40625 C 5.625 -0.863281 4.632812 -1.515625 3.8125 -2.359375 C 2.988281 -3.210938 2.351562 -4.238281 1.90625 -5.4375 C 1.457031 -6.644531 1.234375 -8 1.234375 -9.5 C 1.234375 -10.988281 1.457031 -12.335938 1.90625 -13.546875 C 2.351562 -14.753906 2.988281 -15.773438 3.8125 -16.609375 C 4.632812 -17.453125 5.625 -18.097656 6.78125 -18.546875 C 7.9375 -19.003906 9.222656 -19.234375 10.640625 -19.234375 Z M 10.640625 -3.234375 C 12.210938 -3.234375 13.375 -3.757812 14.125 -4.8125 C 14.882812 -5.875 15.265625 -7.425781 15.265625 -9.46875 C 15.265625 -11.507812 14.882812 -13.066406 14.125 -14.140625 C 13.375 -15.210938 12.210938 -15.75 10.640625 -15.75 C 9.035156 -15.75 7.847656 -15.207031 7.078125 -14.125 C 6.304688 -13.050781 5.921875 -11.5 5.921875 -9.46875 C 5.921875 -7.4375 6.304688 -5.890625 7.078125 -4.828125 C 7.847656 -3.765625 9.035156 -3.234375 10.640625 -3.234375 Z M 10.640625 -3.234375 "/></g></g></g><g fill="#000000" fill-opacity="1"><g transform="translate(76.322248, 87.602749)"><g><path d="M 10.640625 -19.234375 C 12.035156 -19.234375 13.304688 -19.003906 14.453125 -18.546875 C 15.609375 -18.097656 16.59375 -17.453125 17.40625 -16.609375 C 18.226562 -15.773438 18.859375 -14.753906 19.296875 -13.546875 C 19.742188 -12.335938 19.96875 -10.988281 19.96875 -9.5 C 19.96875 -8 19.742188 -6.644531 19.296875 -5.4375 C 18.859375 -4.238281 18.226562 -3.210938 17.40625 -2.359375 C 16.59375 -1.515625 15.609375 -0.863281 14.453125 -0.40625 C 13.304688 0.0507812 12.035156 0.28125 10.640625 0.28125 C 9.222656 0.28125 7.9375 0.0507812 6.78125 -0.40625 C 5.625 -0.863281 4.632812 -1.515625 3.8125 -2.359375 C 2.988281 -3.210938 2.351562 -4.238281 1.90625 -5.4375 C 1.457031 -6.644531 1.234375 -8 1.234375 -9.5 C 1.234375 -10.988281 1.457031 -12.335938 1.90625 -13.546875 C 2.351562 -14.753906 2.988281 -15.773438 3.8125 -16.609375 C 4.632812 -17.453125 5.625 -18.097656 6.78125 -18.546875 C 7.9375 -19.003906 9.222656 -19.234375 10.640625 -19.234375 Z M 10.640625 -3.234375 C 12.210938 -3.234375 13.375 -3.757812 14.125 -4.8125 C 14.882812 -5.875 15.265625 -7.425781 15.265625 -9.46875 C 15.265625 -11.507812 14.882812 -13.066406 14.125 -14.140625 C 13.375 -15.210938 12.210938 -15.75 10.640625 -15.75 C 9.035156 -15.75 7.847656 -15.207031 7.078125 -14.125 C 6.304688 -13.050781 5.921875 -11.5 5.921875 -9.46875 C 5.921875 -7.4375 6.304688 -5.890625 7.078125 -4.828125 C 7.847656 -3.765625 9.035156 -3.234375 10.640625 -3.234375 Z M 10.640625 -3.234375 "/></g></g></g><g fill="#000000" fill-opacity="1"><g transform="translate(97.52915, 87.602749)"><g><path d="M 6.515625 -16.609375 C 6.898438 -16.992188 7.300781 -17.347656 7.71875 -17.671875 C 8.144531 -18.003906 8.59375 -18.28125 9.0625 -18.5 C 9.539062 -18.726562 10.050781 -18.90625 10.59375 -19.03125 C 11.132812 -19.164062 11.726562 -19.234375 12.375 -19.234375 C 13.40625 -19.234375 14.316406 -19.054688 15.109375 -18.703125 C 15.910156 -18.359375 16.578125 -17.867188 17.109375 -17.234375 C 17.648438 -16.597656 18.054688 -15.835938 18.328125 -14.953125 C 18.609375 -14.078125 18.75 -13.113281 18.75 -12.0625 L 18.75 0 L 14.203125 0 L 14.203125 -12.0625 C 14.203125 -13.21875 13.9375 -14.109375 13.40625 -14.734375 C 12.875 -15.367188 12.066406 -15.6875 10.984375 -15.6875 C 10.191406 -15.6875 9.453125 -15.507812 8.765625 -15.15625 C 8.078125 -14.800781 7.425781 -14.316406 6.8125 -13.703125 L 6.8125 0 L 2.25 0 L 2.25 -18.9375 L 5.046875 -18.9375 C 5.628906 -18.9375 6.015625 -18.660156 6.203125 -18.109375 Z M 6.515625 -16.609375 "/></g></g></g><g fill="#000000" fill-opacity="1"><g transform="translate(118.348461, 87.602749)"><g><path d="M 8.5625 0.296875 C 6.914062 0.296875 5.648438 -0.164062 4.765625 -1.09375 C 3.890625 -2.03125 3.453125 -3.316406 3.453125 -4.953125 L 3.453125 -15.53125 L 1.515625 -15.53125 C 1.265625 -15.53125 1.050781 -15.609375 0.875 -15.765625 C 0.707031 -15.921875 0.625 -16.160156 0.625 -16.484375 L 0.625 -18.296875 L 3.671875 -18.796875 L 4.640625 -23.96875 C 4.691406 -24.207031 4.804688 -24.394531 4.984375 -24.53125 C 5.160156 -24.664062 5.382812 -24.734375 5.65625 -24.734375 L 8.015625 -24.734375 L 8.015625 -18.78125 L 13.078125 -18.78125 L 13.078125 -15.53125 L 8.015625 -15.53125 L 8.015625 -5.265625 C 8.015625 -4.671875 8.15625 -4.207031 8.4375 -3.875 C 8.726562 -3.539062 9.128906 -3.375 9.640625 -3.375 C 9.921875 -3.375 10.15625 -3.40625 10.34375 -3.46875 C 10.539062 -3.539062 10.707031 -3.613281 10.84375 -3.6875 C 10.988281 -3.757812 11.113281 -3.828125 11.21875 -3.890625 C 11.332031 -3.960938 11.445312 -4 11.5625 -4 C 11.695312 -4 11.804688 -3.960938 11.890625 -3.890625 C 11.972656 -3.828125 12.066406 -3.726562 12.171875 -3.59375 L 13.53125 -1.390625 C 12.863281 -0.828125 12.097656 -0.40625 11.234375 -0.125 C 10.378906 0.15625 9.488281 0.296875 8.5625 0.296875 Z M 8.5625 0.296875 "/></g></g></g><g fill="#000000" fill-opacity="1"><g transform="translate(132.080347, 87.602749)"><g><path d="M 6.8125 -16.90625 C 7.550781 -17.59375 8.363281 -18.148438 9.25 -18.578125 C 10.132812 -19.015625 11.175781 -19.234375 12.375 -19.234375 C 13.40625 -19.234375 14.316406 -19.054688 15.109375 -18.703125 C 15.910156 -18.359375 16.578125 -17.867188 17.109375 -17.234375 C 17.648438 -16.597656 18.054688 -15.835938 18.328125 -14.953125 C 18.609375 -14.078125 18.75 -13.113281 18.75 -12.0625 L 18.75 0 L 14.203125 0 L 14.203125 -12.0625 C 14.203125 -13.21875 13.9375 -14.109375 13.40625 -14.734375 C 12.875 -15.367188 12.066406 -15.6875 10.984375 -15.6875 C 10.191406 -15.6875 9.453125 -15.507812 8.765625 -15.15625 C 8.078125 -14.800781 7.425781 -14.316406 6.8125 -13.703125 L 6.8125 0 L 2.25 0 L 2.25 -27.4375 L 6.8125 -27.4375 Z M 6.8125 -16.90625 "/></g></g></g><g fill="#000000" fill-opacity="1"><g transform="translate(152.899658, 87.602749)"><g><path d="M 10.640625 -19.234375 C 12.035156 -19.234375 13.304688 -19.003906 14.453125 -18.546875 C 15.609375 -18.097656 16.59375 -17.453125 17.40625 -16.609375 C 18.226562 -15.773438 18.859375 -14.753906 19.296875 -13.546875 C 19.742188 -12.335938 19.96875 -10.988281 19.96875 -9.5 C 19.96875 -8 19.742188 -6.644531 19.296875 -5.4375 C 18.859375 -4.238281 18.226562 -3.210938 17.40625 -2.359375 C 16.59375 -1.515625 15.609375 -0.863281 14.453125 -0.40625 C 13.304688 0.0507812 12.035156 0.28125 10.640625 0.28125 C 9.222656 0.28125 7.9375 0.0507812 6.78125 -0.40625 C 5.625 -0.863281 4.632812 -1.515625 3.8125 -2.359375 C 2.988281 -3.210938 2.351562 -4.238281 1.90625 -5.4375 C 1.457031 -6.644531 1.234375 -8 1.234375 -9.5 C 1.234375 -10.988281 1.457031 -12.335938 1.90625 -13.546875 C 2.351562 -14.753906 2.988281 -15.773438 3.8125 -16.609375 C 4.632812 -17.453125 5.625 -18.097656 6.78125 -18.546875 C 7.9375 -19.003906 9.222656 -19.234375 10.640625 -19.234375 Z M 10.640625 -3.234375 C 12.210938 -3.234375 13.375 -3.757812 14.125 -4.8125 C 14.882812 -5.875 15.265625 -7.425781 15.265625 -9.46875 C 15.265625 -11.507812 14.882812 -13.066406 14.125 -14.140625 C 13.375 -15.210938 12.210938 -15.75 10.640625 -15.75 C 9.035156 -15.75 7.847656 -15.207031 7.078125 -14.125 C 6.304688 -13.050781 5.921875 -11.5 5.921875 -9.46875 C 5.921875 -7.4375 6.304688 -5.890625 7.078125 -4.828125 C 7.847656 -3.765625 9.035156 -3.234375 10.640625 -3.234375 Z M 10.640625 -3.234375 "/></g></g></g><g fill="#000000" fill-opacity="1"><g transform="translate(174.10656, 87.602749)"><g><path d="M 6.515625 -16.609375 C 6.898438 -16.992188 7.300781 -17.347656 7.71875 -17.671875 C 8.144531 -18.003906 8.59375 -18.28125 9.0625 -18.5 C 9.539062 -18.726562 10.050781 -18.90625 10.59375 -19.03125 C 11.132812 -19.164062 11.726562 -19.234375 12.375 -19.234375 C 13.40625 -19.234375 14.316406 -19.054688 15.109375 -18.703125 C 15.910156 -18.359375 16.578125 -17.867188 17.109375 -17.234375 C 17.648438 -16.597656 18.054688 -15.835938 18.328125 -14.953125 C 18.609375 -14.078125 18.75 -13.113281 18.75 -12.0625 L 18.75 0 L 14.203125 0 L 14.203125 -12.0625 C 14.203125 -13.21875 13.9375 -14.109375 13.40625 -14.734375 C 12.875 -15.367188 12.066406 -15.6875 10.984375 -15.6875 C 10.191406 -15.6875 9.453125 -15.507812 8.765625 -15.15625 C 8.078125 -14.800781 7.425781 -14.316406 6.8125 -13.703125 L 6.8125 0 L 2.25 0 L 2.25 -18.9375 L 5.046875 -18.9375 C 5.628906 -18.9375 6.015625 -18.660156 6.203125 -18.109375 Z M 6.515625 -16.609375 "/></g></g></g><g fill="#000000" fill-opacity="1"><g transform="translate(194.925871, 87.602749)"><g><path d="M 9.171875 -9.9375 C 9.742188 -9.9375 10.238281 -10.007812 10.65625 -10.15625 C 11.070312 -10.3125 11.414062 -10.523438 11.6875 -10.796875 C 11.96875 -11.066406 12.175781 -11.390625 12.3125 -11.765625 C 12.457031 -12.148438 12.53125 -12.570312 12.53125 -13.03125 C 12.53125 -13.96875 12.25 -14.707031 11.6875 -15.25 C 11.132812 -15.800781 10.296875 -16.078125 9.171875 -16.078125 C 8.054688 -16.078125 7.21875 -15.800781 6.65625 -15.25 C 6.09375 -14.707031 5.8125 -13.96875 5.8125 -13.03125 C 5.8125 -12.59375 5.878906 -12.179688 6.015625 -11.796875 C 6.160156 -11.410156 6.375 -11.078125 6.65625 -10.796875 C 6.9375 -10.523438 7.285156 -10.3125 7.703125 -10.15625 C 8.128906 -10.007812 8.617188 -9.9375 9.171875 -9.9375 Z M 14.328125 0.84375 C 14.328125 0.476562 14.210938 0.179688 13.984375 -0.046875 C 13.765625 -0.285156 13.460938 -0.46875 13.078125 -0.59375 C 12.703125 -0.726562 12.257812 -0.828125 11.75 -0.890625 C 11.238281 -0.953125 10.695312 -1 10.125 -1.03125 C 9.550781 -1.0625 8.957031 -1.085938 8.34375 -1.109375 C 7.738281 -1.128906 7.148438 -1.175781 6.578125 -1.25 C 6.066406 -0.96875 5.65625 -0.632812 5.34375 -0.25 C 5.03125 0.125 4.875 0.566406 4.875 1.078125 C 4.875 1.398438 4.957031 1.707031 5.125 2 C 5.289062 2.289062 5.554688 2.539062 5.921875 2.75 C 6.285156 2.957031 6.753906 3.117188 7.328125 3.234375 C 7.910156 3.359375 8.617188 3.421875 9.453125 3.421875 C 10.296875 3.421875 11.023438 3.351562 11.640625 3.21875 C 12.265625 3.09375 12.773438 2.914062 13.171875 2.6875 C 13.566406 2.457031 13.859375 2.1875 14.046875 1.875 C 14.234375 1.5625 14.328125 1.21875 14.328125 0.84375 Z M 18.859375 -18.296875 L 18.859375 -16.59375 C 18.859375 -16.050781 18.535156 -15.71875 17.890625 -15.59375 L 16.1875 -15.28125 C 16.445312 -14.632812 16.578125 -13.921875 16.578125 -13.140625 C 16.578125 -12.203125 16.390625 -11.351562 16.015625 -10.59375 C 15.640625 -9.84375 15.117188 -9.203125 14.453125 -8.671875 C 13.785156 -8.148438 13 -7.742188 12.09375 -7.453125 C 11.195312 -7.160156 10.222656 -7.015625 9.171875 -7.015625 C 8.804688 -7.015625 8.453125 -7.03125 8.109375 -7.0625 C 7.765625 -7.101562 7.425781 -7.15625 7.09375 -7.21875 C 6.5 -6.863281 6.203125 -6.460938 6.203125 -6.015625 C 6.203125 -5.640625 6.375 -5.359375 6.71875 -5.171875 C 7.070312 -4.992188 7.535156 -4.867188 8.109375 -4.796875 C 8.691406 -4.722656 9.351562 -4.675781 10.09375 -4.65625 C 10.832031 -4.644531 11.585938 -4.609375 12.359375 -4.546875 C 13.140625 -4.484375 13.898438 -4.375 14.640625 -4.21875 C 15.378906 -4.0625 16.035156 -3.816406 16.609375 -3.484375 C 17.191406 -3.148438 17.65625 -2.695312 18 -2.125 C 18.351562 -1.5625 18.53125 -0.828125 18.53125 0.078125 C 18.53125 0.910156 18.320312 1.71875 17.90625 2.5 C 17.5 3.289062 16.90625 3.992188 16.125 4.609375 C 15.34375 5.222656 14.378906 5.71875 13.234375 6.09375 C 12.097656 6.476562 10.804688 6.671875 9.359375 6.671875 C 7.929688 6.671875 6.6875 6.53125 5.625 6.25 C 4.570312 5.96875 3.691406 5.597656 2.984375 5.140625 C 2.285156 4.679688 1.765625 4.148438 1.421875 3.546875 C 1.078125 2.941406 0.90625 2.3125 0.90625 1.65625 C 0.90625 0.769531 1.171875 0.03125 1.703125 -0.5625 C 2.242188 -1.15625 2.976562 -1.632812 3.90625 -2 C 3.40625 -2.25 3.003906 -2.585938 2.703125 -3.015625 C 2.410156 -3.453125 2.265625 -4.019531 2.265625 -4.71875 C 2.265625 -5.007812 2.316406 -5.304688 2.421875 -5.609375 C 2.523438 -5.910156 2.675781 -6.207031 2.875 -6.5 C 3.082031 -6.789062 3.335938 -7.066406 3.640625 -7.328125 C 3.953125 -7.597656 4.320312 -7.835938 4.75 -8.046875 C 3.78125 -8.566406 3.019531 -9.253906 2.46875 -10.109375 C 1.925781 -10.972656 1.65625 -11.984375 1.65625 -13.140625 C 1.65625 -14.078125 1.84375 -14.921875 2.21875 -15.671875 C 2.59375 -16.429688 3.113281 -17.078125 3.78125 -17.609375 C 4.457031 -18.148438 5.253906 -18.5625 6.171875 -18.84375 C 7.085938 -19.125 8.085938 -19.265625 9.171875 -19.265625 C 9.984375 -19.265625 10.742188 -19.179688 11.453125 -19.015625 C 12.171875 -18.859375 12.828125 -18.617188 13.421875 -18.296875 Z M 18.859375 -18.296875 "/></g></g></g></svg>